<svg xmlns="http://www.w3.org/2000/svg" viewBox="0 0 24 24" id="Awards"><path d="M16.86,21a1,1,0,0,1-.49-.13l-4.44-2.5L7.45,20.79a1,1,0,0,1-1.06-.07,1,1,0,0,1-.4-1l.9-5.27L3.28,10.71a1,1,0,0,1-.23-1A1,1,0,0,1,3.86,9l5-.72,2.29-4.74A1,1,0,0,1,12.06,3a1,1,0,0,1,.9.58l2.2,4.79,5,.81a1,1,0,0,1,.55,1.69l-2.95,3a1,1,0,0,1-1.41,0,1,1,0,0,1,0-1.42l1.58-1.58-3.6-.58a1,1,0,0,1-.75-.57L12,6.35,10.44,9.66a1,1,0,0,1-.76.56l-3.61.51,2.62,2.72a1,1,0,0,1,.26.87l-.64,3.73,3.16-1.7a1,1,0,0,1,1,0l3,1.7-.23-1.14a1,1,0,0,1,2-.4l.66,3.28a1,1,0,0,1-.39,1A1,1,0,0,1,16.86,21Z" data-name="7-awards" fill="#ffffff" class="color000000 svgShape"></path></svg>