<svg xmlns="http://www.w3.org/2000/svg" viewBox="0 0 32 32" id="Megaphone"><path fill="#595bd4" d="M30 13.5h-4c-.3 0-.5-.2-.5-.5s.2-.5.5-.5h4c.3 0 .5.2.5.5s-.2.5-.5.5zm-3.8-2.2c-.2 0-.4-.1-.5-.3-.1-.3 0-.5.3-.7l2.4-1c.3-.1.5 0 .7.3.1.3 0 .5-.3.7l-2.4 1h-.2zm2.4 5.4h-.2l-2.4-1c-.3-.1-.4-.4-.3-.7.1-.3.4-.4.7-.3l2.4 1c.3.1.4.4.3.7-.1.2-.3.3-.5.3zM9 28.5H7c-.3 0-.5-.2-.5-.5l-1-11c0-.1 0-.3.1-.4s.2-.2.4-.2h3c.3 0 .5.2.5.5v11c0 .4-.2.6-.5.6zm-1.5-1h1v-10h-2l1 10zM6 13.5H4c-.3 0-.5-.2-.5-.5s.2-.5.5-.5h2c.3 0 .5.2.5.5s-.2.5-.5.5zm0 2H4c-.3 0-.5-.2-.5-.5s.2-.5.5-.5h2c.3 0 .5.2.5.5s-.2.5-.5.5zm0-4H4c-.3 0-.5-.2-.5-.5s.2-.5.5-.5h2c.3 0 .5.2.5.5s-.2.5-.5.5z" class="color4f5266 svgShape"></path><path fill="#595bd4" d="M10 17.5H5c-.8 0-1.5-.7-1.5-1.5v-6c0-.8.7-1.5 1.5-1.5h5c.3 0 .5.2.5.5v8c0 .3-.2.5-.5.5zm-5-8c-.3 0-.5.2-.5.5v6c0 .3.2.5.5.5h4.5v-7H5zm16 13c-.8 0-1.5-.7-1.5-1.5V5c0-.8.7-1.5 1.5-1.5s1.5.7 1.5 1.5v16c0 .8-.6 1.5-1.5 1.5zm0-18c-.3 0-.5.2-.5.5v16c0 .3.2.5.5.5s.5-.2.5-.5V5c0-.3-.2-.5-.5-.5z" class="color4f5266 svgShape"></path><path fill="#595bd4" d="M20 20.5h-.2l-6.9-3H10c-.3 0-.5-.2-.5-.5V9c0-.3.2-.5.5-.5h2.9l6.9-3c.2-.1.3 0 .5 0 .1.1.2.2.2.4v14c0 .2-.1.3-.2.4-.1.2-.2.2-.3.2zm-9.5-4h2.7l6.3 2.7V6.8l-6.3 2.7h-2.7v7zm-6.5-3H3c-.8 0-1.5-.7-1.5-1.5v-1c0-.8.7-1.5 1.5-1.5h1c.3 0 .5.2.5.5v3c0 .3-.2.5-.5.5zm-1-3c-.3 0-.5.2-.5.5v1c0 .3.2.5.5.5h.5v-2H3zm19 7c-.3 0-.5-.2-.5-.5s.2-.5.5-.5c.8 0 1.5-.7 1.5-1.5v-4c0-.8-.7-1.5-1.5-1.5-.3 0-.5-.2-.5-.5s.2-.5.5-.5c1.4 0 2.5 1.1 2.5 2.5v4c0 1.4-1.1 2.5-2.5 2.5z" class="color4f5266 svgShape"></path></svg>